<mxfile host="app.diagrams.net" modified="2024-03-26T07:36:20.411Z" agent="Mozilla/5.0 (Windows NT 10.0; Win64; x64) AppleWebKit/537.36 (KHTML, like Gecko) Chrome/122.0.0.0 Safari/537.36 Edg/122.0.0.0" version="21.8.2" etag="AJe0fOVcJe5IBPNG55x5" type="github">
  <diagram name="第 1 页" id="U-5au5cSnlTENQNOFDw-">
    <mxGraphModel>
      <root>
        <mxCell id="0" />
        <mxCell id="1" parent="0" />
      </root>
    </mxGraphModel>
  </diagram>
</mxfile>
